HIERARCHY
ROOT SpineBase
{
  OFFSET 0.000000 0.000000 0.000000
  CHANNELS 6 Xposition Yposition Zposition Zrotation Xrotation Yrotation
  JOINT SpineMid
  {
    OFFSET 0.000000 27.661696 0.000000
    CHANNELS 3 Zrotation Xrotation Yrotation
    JOINT SpineShoulder
    {
      OFFSET 0.066193 20.670294 -0.757263
      CHANNELS 3 Zrotation Xrotation Yrotation
      JOINT Neck
      {
        OFFSET -0.004234 6.853688 -0.475947
        CHANNELS 3 Zrotation Xrotation Yrotation
        JOINT Head
        {
          OFFSET 3.572506 12.074361 -0.529976
          CHANNELS 3 Zrotation Xrotation Yrotation
          End Site
          {
            OFFSET 0 0 0
          }
        }
      }
      JOINT ShoulderLeft
      {
        OFFSET -10.645094 -2.423634 -8.937740
        CHANNELS 3 Zrotation Xrotation Yrotation
        JOINT ElbowLeft
        {
          OFFSET -2.425164 -22.680595 -6.795589
          CHANNELS 3 Zrotation Xrotation Yrotation
          JOINT WristLeft
          {
            OFFSET -0.114228 -23.495522 -3.248583
            CHANNELS 3 Zrotation Xrotation Yrotation
            JOINT HandLeft
            {
              OFFSET 1.873318 -3.621341 -0.805896
              CHANNELS 3 Zrotation Xrotation Yrotation
              JOINT HandTipLeft
              {
                OFFSET 1.296967 -5.552385 0.133115
                CHANNELS 3 Zrotation Xrotation Yrotation
                End Site
                {
                  OFFSET 0 0 0
                }
              }
              JOINT ThumbLeft
              {
                OFFSET -0.856253 -1.058510 -2.946421
                CHANNELS 3 Zrotation Xrotation Yrotation
                End Site
                {
                  OFFSET 0 0 0
                }
              }
            }
          }
        }
      }
      JOINT ShoulderRight
      {
        OFFSET 12.609661 -5.202660 4.655421
        CHANNELS 3 Zrotation Xrotation Yrotation
        JOINT ElbowRight
        {
          OFFSET 4.583176 -22.585565 0.179743
          CHANNELS 3 Zrotation Xrotation Yrotation
          JOINT WristRight
          {
            OFFSET 6.429096 -18.445004 -2.960314
            CHANNELS 3 Zrotation Xrotation Yrotation
            JOINT HandRight
            {
              OFFSET 1.036356 -7.429897 -1.696301
              CHANNELS 3 Zrotation Xrotation Yrotation
              JOINT HandTipRight
              {
                OFFSET 1.212272 -5.908612 -2.111237
                CHANNELS 3 Zrotation Xrotation Yrotation
                End Site
                {
                  OFFSET 0 0 0
                }
              }
              JOINT ThumbRight
              {
                OFFSET -0.556418 -1.745977 -3.621919
                CHANNELS 3 Zrotation Xrotation Yrotation
                End Site
                {
                  OFFSET 0 0 0
                }
              }
            }
          }
        }
      }
    }
  }
  JOINT HipLeft
  {
    OFFSET -5.538348 1.197978 -6.312480
    CHANNELS 3 Zrotation Xrotation Yrotation
    JOINT KneeLeft
    {
      OFFSET -6.611034 -30.098427 5.156650
      CHANNELS 3 Zrotation Xrotation Yrotation
      JOINT AnkleLeft
      {
        OFFSET -2.632069 -33.050955 8.875044
        CHANNELS 3 Zrotation Xrotation Yrotation
        JOINT FootLeft
        {
          OFFSET 2.989000 -5.935103 -3.463934
          CHANNELS 3 Zrotation Xrotation Yrotation
          End Site
          {
            OFFSET 0 0 0
          }
        }
      }
    }
  }
  JOINT HipRight
  {
    OFFSET 5.409792 0.119886 -0.202965
    CHANNELS 3 Zrotation Xrotation Yrotation
    JOINT KneeRight
    {
      OFFSET -5.575898 -30.188638 6.944539
      CHANNELS 3 Zrotation Xrotation Yrotation
      JOINT AnkleRight
      {
        OFFSET -6.911195 -32.631213 7.082348
        CHANNELS 3 Zrotation Xrotation Yrotation
        JOINT FootRight
        {
          OFFSET 3.036120 -4.523139 -8.561582
          CHANNELS 3 Zrotation Xrotation Yrotation
          End Site
          {
            OFFSET 0 0 0
          }
        }
      }
    }
  }
}
MOTION
Frames: 6
Frame Time: 0.033333
8.733729 69.919127 370.917308 -0.000000 0.000000 -29.163322 -0.000000 0.000000 29.163322 -0.000000 0.000000 0.000000 -0.000000 0.000000 0.000000 0.000000 0.000000 0.000000 -0.000000 0.000000 0.000000 -0.000000 0.000000 0.000000 -0.000000 0.000000 0.000000 -0.000000 0.000000 0.000000 0.000000 0.000000 0.000000 0.000000 0.000000 0.000000 -0.000000 0.000000 0.000000 -0.000000 0.000000 0.000000 -0.000000 0.000000 0.000000 -0.000000 0.000000 0.000000 0.000000 0.000000 0.000000 0.000000 0.000000 0.000000 -0.000000 0.000000 29.163322 -0.000000 0.000000 0.000000 -0.000000 0.000000 0.000000 0.000000 0.000000 0.000000 -0.000000 0.000000 29.163322 -0.000000 0.000000 0.000000 -0.000000 0.000000 0.000000 0.000000 0.000000 0.000000
8.675213 69.784893 370.974599 -0.137634 -0.206503 -28.639372 0.021820 0.247205 28.639077 -0.000000 0.000000 0.000000 0.287547 0.939356 -0.267969 0.000000 0.000000 0.000000 -4.874786 -1.887143 1.583446 9.581017 1.204128 -2.502809 -9.104745 -9.355245 -3.855936 4.847448 8.270832 3.285549 0.000000 0.000000 0.000000 0.000000 0.000000 0.000000 0.005151 -2.920487 -0.592465 -3.796998 3.590313 1.667254 -1.988216 1.981821 0.918205 0.093835 -6.372066 -0.782284 0.000000 0.000000 0.000000 0.000000 0.000000 0.000000 0.021820 0.247205 28.639077 -0.876643 0.247788 -0.253236 2.502332 -13.205297 -7.472863 0.000000 0.000000 0.000000 0.021820 0.247205 28.639077 -0.000000 0.000000 0.000000 -0.765936 0.483588 1.771311 0.000000 0.000000 0.000000
8.585602 69.680947 371.034391 -0.310237 -0.421871 -28.044660 0.075469 0.518193 28.043177 -0.210261 -0.888268 -0.016771 0.648284 2.576273 -0.480794 0.000000 0.000000 0.000000 -9.276780 -2.806478 3.101214 18.737367 1.847410 -5.167472 -17.390033 -17.401099 -7.893737 8.503016 15.942574 5.579443 0.000000 0.000000 0.000000 0.000000 0.000000 0.000000 0.214304 -5.048514 -1.191573 -7.266264 7.319168 3.754752 -5.170938 3.427743 2.089008 1.100138 -11.516952 -2.102093 0.000000 0.000000 0.000000 0.000000 0.000000 0.000000 -0.115260 1.306061 27.908195 -1.804558 -0.337382 -0.345565 3.675761 -22.904225 -13.068509 0.000000 0.000000 0.000000 0.075469 0.518193 28.043177 -0.000000 0.000000 0.000000 -1.463353 0.480098 3.099674 0.000000 0.000000 0.000000
8.464895 69.607289 371.096683 -0.517901 -0.646464 -27.378141 0.162636 0.812205 27.374066 -0.371069 -1.295592 -0.030740 0.822476 3.547023 -0.644352 0.000000 0.000000 0.000000 -13.437901 -4.074337 4.423594 27.315529 1.986361 -7.802710 -24.392536 -23.807380 -11.611962 10.835101 22.720778 7.250950 0.000000 0.000000 0.000000 0.000000 0.000000 0.000000 0.364392 -7.762923 -1.818849 -10.358366 11.200228 6.197251 -9.651390 4.144865 3.369595 3.234637 -15.142178 -3.605960 0.000000 0.000000 0.000000 0.000000 0.000000 0.000000 -0.007424 2.061953 27.189494 -2.601839 -0.585779 -0.483293 4.446743 -28.793672 -16.683610 0.000000 0.000000 0.000000 0.162636 0.812205 27.374066 -0.000000 0.000000 0.000000 -2.092708 -0.003465 4.006955 0.000000 0.000000 0.000000
8.313092 69.563918 371.161477 -0.760857 -0.880670 -26.638965 0.431895 0.250219 26.621652 -0.306314 -0.828209 -0.035453 0.895729 4.312418 -0.751151 0.000000 0.000000 0.000000 -17.260344 -5.200253 5.610186 35.209088 1.731450 -10.257873 -29.820613 -28.707893 -14.676978 11.708053 28.688837 8.798364 0.000000 0.000000 0.000000 0.000000 0.000000 0.000000 0.539091 -10.615168 -2.472413 -13.044768 15.266727 8.919308 -15.446848 3.946694 4.511905 6.727229 -16.998260 -4.876647 0.000000 0.000000 0.000000 0.000000 0.000000 0.000000 0.220460 2.878075 26.406213 -3.329593 -0.883805 -0.597447 5.419765 -31.437782 -18.422816 0.000000 0.000000 0.000000 0.285315 1.128292 26.630308 -0.000000 0.000000 0.000000 -2.662401 -0.986826 4.496252 0.000000 0.000000 0.000000
8.130194 69.550835 371.228771 -1.039473 -1.124902 -25.826540 0.529117 0.299232 25.796982 -0.371321 -0.952188 -0.047831 0.866630 4.874880 -0.798513 0.000000 0.000000 0.000000 -20.751239 -6.158546 6.682020 42.362121 1.219585 -12.433620 -33.536655 -32.389027 -16.925819 10.976078 33.888933 10.654409 0.000000 0.000000 0.000000 0.000000 0.000000 0.000000 0.734527 -13.611397 -3.156624 -15.315751 19.568025 11.839763 -22.498509 2.696095 5.162661 11.766857 -16.811718 -5.514465 0.000000 0.000000 0.000000 0.000000 0.000000 0.000000 0.574789 3.745938 25.554791 -3.985538 -1.228673 -0.686616 6.828402 -31.287915 -18.454994 0.000000 0.000000 0.000000 1.258469 1.935053 25.989310 -0.936034 -0.066091 -0.203327 -3.189186 -2.519438 4.548691 0.000000 0.000000 0.000000
